<?xml version="1.0" encoding="utf-8"?>
<!-- Generator: Adobe Illustrator 18.0.0, SVG Export Plug-In . SVG Version: 6.00 Build 0)  -->
<!DOCTYPE svg PUBLIC "-//W3C//DTD SVG 1.1//EN" "http://www.w3.org/Graphics/SVG/1.1/DTD/svg11.dtd">
<svg version="1.1" id="Layer_1" xmlns="http://www.w3.org/2000/svg" xmlns:xlink="http://www.w3.org/1999/xlink" x="0px" y="0px"
	 viewBox="0 0 160 160" enable-background="new 0 0 160 160" xml:space="preserve">
<rect y="151.1" fill="#BEBEBE" width="160" height="8.9"/>
<path fill="#BEBEBE" d="M13.3,120H4.4C2,120,0,122,0,124.4v17.8h17.8v-17.8C17.8,122,15.8,120,13.3,120z"/>
<path fill="#BEBEBE" d="M48.9,93.3H40c-2.5,0-4.4,2-4.4,4.4v44.4h17.8l0-44.4C53.3,95.3,51.3,93.3,48.9,93.3z"/>
<path fill="#BEBEBE" d="M84.4,102.2h-8.9c-2.5,0-4.4,2-4.4,4.4l0,35.6h17.8v-35.6C88.9,104.2,86.9,102.2,84.4,102.2z"/>
<path fill="#BEBEBE" d="M120,68.9h-8.9c-2.5,0-4.4,2-4.4,4.4l0,68.9h17.8V73.3C124.4,70.9,122.5,68.9,120,68.9z"/>
<path fill="#BEBEBE" d="M155.6,15.6h-8.9c-2.5,0-4.4,2-4.4,4.4v122.2H160V20C160,17.5,158,15.6,155.6,15.6z"/>
<g>
	<path fill="#BEBEBE" d="M33.3,46.8V40h-6.7v11.3c5.1,1,8.9,5.5,8.9,10.9c0,6.1-5,11.1-11.1,11.1c-6.1,0-11.1-5-11.1-11.1
		c0-5.4,3.8-9.9,8.9-10.9V8.9h0l0,0c0-1.2,1-2.2,2.2-2.2c1.2,0,2.2,1,2.2,2.2v0l0,0v4.4h6.7V8.9c0-4.9-4-8.9-8.9-8.9s-8.9,4-8.9,8.9
		v38c-5.3,3.1-8.9,8.8-8.9,15.4c0,9.8,8,17.8,17.8,17.8s17.8-8,17.8-17.8C42.2,55.6,38.6,49.9,33.3,46.8z"/>
	<rect x="26.7" y="28.9" fill="#BEBEBE" width="6.7" height="6.7"/>
	<rect x="26.7" y="17.8" fill="#BEBEBE" width="6.7" height="6.7"/>
</g>
</svg>
