<?xml version="1.0" encoding="utf-8"?>
<!-- Generator: Adobe Illustrator 18.0.0, SVG Export Plug-In . SVG Version: 6.00 Build 0)  -->
<!DOCTYPE svg PUBLIC "-//W3C//DTD SVG 1.1//EN" "http://www.w3.org/Graphics/SVG/1.1/DTD/svg11.dtd">
<svg version="1.1" id="Layer_1" xmlns="http://www.w3.org/2000/svg" xmlns:xlink="http://www.w3.org/1999/xlink" x="0px" y="0px"
	 viewBox="0 0 160 160" enable-background="new 0 0 160 160" xml:space="preserve">
<g>
	<path fill="#BEBEBE" d="M54.1,103.2h-5.8V84.8c0-2,0.6-3.8,1.8-5.3c1.2-1.5,2.7-2.6,4.6-3.1L61.3,57c1.1-2.6,3-3.9,5.8-3.9h31.4
		c2.8,0,4.7,1.3,5.8,3.9l6.6,19.4c1.8,0.5,3.3,1.5,4.6,3.1c1.2,1.5,1.8,3.3,1.8,5.3h-0.1v18.4h-5.7v5.7c0,1.6-0.5,2.9-1.7,4
		c-1.1,1.1-2.4,1.6-4,1.6c-1.5,0-2.8-0.6-3.9-1.6c-1.1-1.1-1.7-2.4-1.7-4v-5.7H65.3v5.7c0,1.6-0.6,2.9-1.7,4c-1.1,1.1-2.4,1.6-4,1.6
		c-1.5,0-2.8-0.6-3.9-1.6c-1.1-1.1-1.7-2.4-1.7-4V103.2z M56,83.4c-1.1,1.1-1.7,2.4-1.7,4c0,1.6,0.6,2.9,1.7,4.1
		c1.1,1.1,2.5,1.7,4.1,1.7c1.6,0,2.9-0.6,4.1-1.7c1.1-1.1,1.7-2.5,1.7-4.1c0-1.6-0.6-2.9-1.7-4c-1.1-1.1-2.5-1.6-4.1-1.6
		C58.4,81.7,57.1,82.3,56,83.4z M61,76.1h43.9l-5.7-16.6c-0.3-0.8-0.9-1.2-1.7-1.2H68.2c-0.8,0-1.3,0.4-1.6,1.2L61,76.1z
		 M109.4,83.4c-1.1-1.1-2.4-1.6-4-1.6c-1.6,0-2.9,0.6-4.1,1.6c-1.1,1.1-1.7,2.4-1.7,4c0,1.6,0.6,2.9,1.7,4.1
		c1.1,1.1,2.5,1.7,4.1,1.7c1.6,0,2.9-0.6,4-1.7c1.1-1.1,1.6-2.5,1.6-4.1C111,85.8,110.5,84.5,109.4,83.4z"/>
</g>
<g>
	<circle fill="#BEBEBE" cx="64.3" cy="39.3" r="2.3"/>
	<circle fill="#BEBEBE" cx="55" cy="39.3" r="2.3"/>
	<circle fill="#BEBEBE" cx="45.7" cy="39.3" r="2.3"/>
	<circle fill="#BEBEBE" cx="36.5" cy="39.3" r="2.3"/>
	<circle fill="#BEBEBE" cx="27.2" cy="39.3" r="2.3"/>
	<circle fill="#BEBEBE" cx="59.7" cy="31.7" r="2.3"/>
	<circle fill="#BEBEBE" cx="50.4" cy="31.7" r="2.3"/>
	<circle fill="#BEBEBE" cx="73.6" cy="39.3" r="2.3"/>
	<circle fill="#BEBEBE" cx="110.7" cy="39.3" r="2.3"/>
	<circle fill="#BEBEBE" cx="101.5" cy="39.3" r="2.3"/>
	<circle fill="#BEBEBE" cx="92.2" cy="39.3" r="2.3"/>
	<circle fill="#BEBEBE" cx="82.9" cy="39.3" r="2.3"/>
	<circle fill="#BEBEBE" cx="120" cy="39.3" r="2.3"/>
	<circle fill="#BEBEBE" cx="87.5" cy="31.7" r="2.3"/>
	<circle fill="#BEBEBE" cx="78.2" cy="31.7" r="2.3"/>
	<circle fill="#BEBEBE" cx="69" cy="31.7" r="2.3"/>
	<circle fill="#BEBEBE" cx="106.1" cy="31.7" r="2.3"/>
	<circle fill="#BEBEBE" cx="96.8" cy="31.7" r="2.3"/>
	<circle fill="#BEBEBE" cx="124.7" cy="31.7" r="2.3"/>
	<circle fill="#BEBEBE" cx="115.4" cy="31.7" r="2.3"/>
	<circle fill="#BEBEBE" cx="64.3" cy="24.2" r="2.3"/>
	<circle fill="#BEBEBE" cx="55" cy="24.2" r="2.3"/>
	<circle fill="#BEBEBE" cx="45.7" cy="24.2" r="2.3"/>
	<circle fill="#BEBEBE" cx="92.2" cy="24.2" r="2.3"/>
	<circle fill="#BEBEBE" cx="82.9" cy="24.2" r="2.3"/>
	<circle fill="#BEBEBE" cx="73.6" cy="24.2" r="2.3"/>
	<circle fill="#BEBEBE" cx="69" cy="16.7" r="2.3"/>
	<circle fill="#BEBEBE" cx="78.2" cy="16.7" r="2.3"/>
	<circle fill="#BEBEBE" cx="59.7" cy="16.7" r="2.3"/>
	<circle fill="#BEBEBE" cx="27.2" cy="84.9" r="2.3"/>
	<circle fill="#BEBEBE" cx="36.5" cy="84.9" r="2.3"/>
	<circle fill="#BEBEBE" cx="41.1" cy="77.4" r="2.3"/>
	<circle fill="#BEBEBE" cx="31.8" cy="77.4" r="2.3"/>
	<circle fill="#BEBEBE" cx="45.7" cy="69.8" r="2.3"/>
	<circle fill="#BEBEBE" cx="36.5" cy="69.8" r="2.3"/>
	<circle fill="#BEBEBE" cx="41.1" cy="62.3" r="2.3"/>
	<circle fill="#BEBEBE" cx="55" cy="54.7" r="2.3"/>
	<circle fill="#BEBEBE" cx="45.7" cy="54.7" r="2.3"/>
	<circle fill="#BEBEBE" cx="69" cy="47.2" r="2.3"/>
	<circle fill="#BEBEBE" cx="78.2" cy="47.2" r="2.3"/>
	<circle fill="#BEBEBE" cx="87.5" cy="47.2" r="2.3"/>
	<circle fill="#BEBEBE" cx="59.7" cy="47.2" r="2.3"/>
	<circle fill="#BEBEBE" cx="50.4" cy="62.3" r="2.3"/>
	<circle fill="#BEBEBE" cx="113.1" cy="54.7" r="2.3"/>
	<circle fill="#BEBEBE" cx="121.8" cy="54.7" r="2.3"/>
	<circle fill="#BEBEBE" cx="131.7" cy="54.7" r="2.3"/>
	<circle fill="#BEBEBE" cx="140.4" cy="54.7" r="2.3"/>
	<circle fill="#BEBEBE" cx="117.2" cy="62.3" r="2.3"/>
	<circle fill="#BEBEBE" cx="127" cy="62.3" r="2.3"/>
	<circle fill="#BEBEBE" cx="135.8" cy="62.3" r="2.3"/>
	<circle fill="#BEBEBE" cx="96.8" cy="47.2" r="2.3"/>
	<circle fill="#BEBEBE" cx="92.2" cy="63.5" r="2.3"/>
	<circle fill="#BEBEBE" cx="82.9" cy="63.5" r="2.3"/>
	<circle fill="#BEBEBE" cx="73.6" cy="63.5" r="2.3"/>
	<circle fill="#BEBEBE" cx="68.9" cy="70.8" r="2.3"/>
	<circle fill="#BEBEBE" cx="78.2" cy="70.8" r="2.3"/>
	<circle fill="#BEBEBE" cx="87.5" cy="70.8" r="2.3"/>
	<circle fill="#BEBEBE" cx="96.8" cy="70.8" r="2.3"/>
	<circle fill="#BEBEBE" cx="106.1" cy="47.2" r="2.3"/>
	<circle fill="#BEBEBE" cx="115.4" cy="47.2" r="2.3"/>
	<circle fill="#BEBEBE" cx="124.7" cy="47.2" r="2.3"/>
	<circle fill="#BEBEBE" cx="134" cy="47.2" r="2.3"/>
	<circle fill="#BEBEBE" cx="50.4" cy="47.2" r="2.3"/>
	<circle fill="#BEBEBE" cx="28.3" cy="69.8" r="2.3"/>
	<circle fill="#BEBEBE" cx="19" cy="69.8" r="2.3"/>
	<circle fill="#BEBEBE" cx="33" cy="62.3" r="2.3"/>
	<circle fill="#BEBEBE" cx="23.7" cy="62.3" r="2.3"/>
	<circle fill="#BEBEBE" cx="37.6" cy="54.7" r="2.3"/>
	<circle fill="#BEBEBE" cx="42.3" cy="47.2" r="2.3"/>
	<circle fill="#BEBEBE" cx="33" cy="47.2" r="2.3"/>
</g>
</svg>
